<svg width="24" height="24" viewBox="0 0 24 24" fill="none" xmlns="http://www.w3.org/2000/svg">
<path fill-rule="evenodd" clip-rule="evenodd" d="M24 12C24 12.4546 23.842 12.8905 23.5607 13.212C23.2794 13.5334 22.8979 13.714 22.5002 13.714H5.12311L11.5634 21.0704C11.7028 21.2297 11.8135 21.4189 11.8889 21.6271C11.9644 21.8353 12.0032 22.0585 12.0032 22.2839C12.0032 22.5092 11.9644 22.7324 11.8889 22.9406C11.8135 23.1488 11.7028 23.338 11.5634 23.4974C11.4239 23.6567 11.2584 23.7831 11.0762 23.8694C10.894 23.9556 10.6987 24 10.5015 24C10.3043 24 10.109 23.9556 9.92682 23.8694C9.74462 23.7831 9.57908 23.6567 9.43963 23.4974L0.440632 13.2135C0.300958 13.0543 0.190141 12.8651 0.11453 12.6569C0.0389195 12.4487 0 12.2254 0 12C0 11.7746 0.0389195 11.5513 0.11453 11.3431C0.190141 11.1349 0.300958 10.9457 0.440632 10.7865L9.43963 0.502647C9.72126 0.180808 10.1032 0 10.5015 0C10.8998 0 11.2818 0.180808 11.5634 0.502647C11.845 0.824486 12.0032 1.26099 12.0032 1.71614C12.0032 2.17129 11.845 2.6078 11.5634 2.92964L5.12311 10.286H22.5002C22.8979 10.286 23.2794 10.4666 23.5607 10.788C23.842 11.1095 24 11.5454 24 12Z" fill="#624040"/>
</svg>
